<?xml version="1.0" encoding="UTF-8" standalone="no"?>
<!DOCTYPE svg PUBLIC "-//W3C//DTD SVG 1.1//EN" "http://www.w3.org/Graphics/SVG/1.1/DTD/svg11.dtd">
<svg width="100%" height="100%" viewBox="0 0 365 362" version="1.1" xmlns="http://www.w3.org/2000/svg" xmlns:xlink="http://www.w3.org/1999/xlink" xml:space="preserve" xmlns:serif="http://www.serif.com/" style="fill-rule:evenodd;clip-rule:evenodd;stroke-linejoin:round;stroke-miterlimit:2;">
    <g id="Background" transform="matrix(1,0,0,1,-326,-192)">
        <path d="M434.648,332.14C449.928,339.015 458.944,341.024 458.793,343.536C458.732,344.553 457.674,344.144 454.062,355.368C452.547,360.077 450.471,356.999 439.402,352.745C432.538,350.107 432.764,349.583 354.395,317.755C353.136,317.244 347.457,315.458 347.92,313.583C348.315,311.984 348.555,312.118 352.632,301.552C354.433,296.885 356.716,300.531 370.45,305.635C371.62,306.069 423.457,327.96 434.648,332.14Z" style="fill:rgb(13,13,13);"/>
        <path d="M604.353,420.864C595.143,416.78 573.177,407.863 571.639,407.173C564.34,403.895 562.583,403.921 564.037,401.263C568.864,392.446 568.274,388.34 570.507,388.345C571.132,388.346 571.124,388.462 656.675,424.089C671.836,430.403 674.962,430.217 673.722,433.58C670.696,441.792 669.183,446.801 667.491,447.056C666.906,447.144 622.146,427.762 604.353,420.864Z" style="fill:rgb(13,13,13);"/>
        <path d="M400.662,427.893C397.517,429.11 397.59,429.205 361.682,443.942C356.076,446.243 353.971,448.643 352.426,444.532C347.967,432.662 347.606,432.696 347.932,431.654C348.441,430.027 353.748,429.404 385.545,415.609C386.73,415.095 386.725,415.181 400.453,409.397C404.52,407.684 449.763,388.623 451.496,388.475C454.557,388.213 452.594,390.61 458.2,401.642C459.751,404.692 457.704,404.323 454.559,405.63C444.782,409.695 410.849,423.265 400.662,427.893Z" style="fill:rgb(12,12,12);"/>
        <path d="M633.658,331.896C629.519,333.421 629.662,333.662 582.67,352.907C573.756,356.558 570.019,359.352 569.083,356.697C568.839,356.005 568.143,352.274 564.073,344.693C562.363,341.507 565.195,342.186 584.571,333.672C590.418,331.102 590.587,331.555 658.301,303.032C664.998,300.211 667.582,297.898 669.18,301.635C674.6,314.314 673.963,314.744 673.329,315.262C672.546,315.901 642.49,327.909 633.658,331.896Z" style="fill:rgb(13,13,13);"/>
        <path d="M451.226,374.501C451.33,377.737 452.035,381.288 449.49,381.379C436.757,381.836 349.219,381.548 340.5,381.519C336.428,381.505 337.887,379.555 337.926,375.505C338.005,367.347 337.23,364.443 340.495,364.399C372.483,363.967 437.1,364.316 445.5,364.362C445.951,364.364 450.632,364.389 451.109,364.918C451.345,365.179 451.428,365.194 451.226,374.501Z" style="fill:rgb(12,12,12);"/>
        <path d="M485.862,289.345C495.173,312.809 496.922,313.942 494.302,315.012C489.28,317.063 489.205,316.799 484.336,319.141C482.068,320.231 480.28,321.431 479.467,319.518C478.235,316.618 462.888,279.043 461.45,275.522C459.553,270.877 437.749,217.495 437.74,217.456C437.27,215.431 442.571,214.349 447.652,211.842C453.062,209.173 453.523,210.699 454.252,212.592C456.483,218.386 481.838,280.655 485.862,289.345Z" style="fill:rgb(12,12,12);"/>
        <path d="M492.866,439.639C485.099,457.03 453.643,534.633 453.085,535.047C452.106,535.775 451.863,535.671 438.587,530.324C436.471,529.471 438.093,527.757 441.555,518.522C442.424,516.202 459.376,475.41 460.933,471.664C462.238,468.523 471.808,445.494 477.323,432.424C479.898,426.322 479.139,424.918 481.547,425.263C482.479,425.397 482.279,425.907 492.362,429.885C492.465,429.925 496.256,430.688 495.251,433.411C494.086,436.568 494.014,436.508 492.866,439.639Z" style="fill:rgb(13,13,13);"/>
        <path d="M570.926,375.518C571.21,370.912 570.869,369.585 570.831,366.498C570.798,363.902 571.922,364.531 574.499,364.541C642.305,364.801 682.31,364.048 683.5,364.5C684.624,364.927 684.902,365.267 684.441,379.495C684.358,382.074 680.359,381.513 672.5,381.492C589.647,381.267 572.673,381.577 571.674,381.119C570.082,380.389 570.936,379.844 570.926,375.518Z" style="fill:rgb(12,12,12);"/>
        <path d="M556.894,461.349C566.105,485.085 584.665,527.399 584.172,529.397C583.878,530.59 579.288,531.711 571.673,534.921C569.534,535.822 568.791,536.107 567.781,533.392C567.729,533.254 542.25,469.49 527.411,434.541C525.73,430.582 527.967,430.851 533.51,428.525C540.468,425.605 541.546,424.507 543.139,427.67C543.297,427.984 549.497,444.103 555.639,458.437C555.739,458.67 556.734,460.991 556.894,461.349Z" style="fill:rgb(13,13,13);"/>
        <path d="M544.159,270.364C548.152,261.558 564.279,221.199 567.862,212.651C569.42,208.936 571.962,211.151 575.434,212.655C583.388,216.102 584.662,215.549 584.199,217.462C583.458,220.527 575.794,238.484 575.021,240.295C574.291,242.005 566.236,260.88 565.903,261.678C557.412,282.019 557.99,282.189 549.377,302.448C542.312,319.066 542.894,321.607 539.66,320.155C527.719,314.793 527.37,315.271 526.76,314.316C525.722,312.688 534.202,296.034 544.159,270.364Z" style="fill:rgb(12,12,12);"/>
        <path d="M435.618,309.385C424.379,297.423 384.242,258.033 383.798,256.448C383.407,255.055 394.175,245.267 394.373,245.21C396.207,244.688 397.039,246.257 416.722,266.288C442.714,292.737 442.892,292.546 445.143,294.854C473.118,323.538 475.829,324.045 473.303,326.285C463.145,335.292 463.68,336.478 462.563,336.142C461.847,335.927 461.917,335.77 435.618,309.385Z" style="fill:rgb(12,12,12);"/>
        <path d="M601.427,451.572C638.052,488.693 637.928,488.948 637.943,489.481C637.976,490.605 628.221,500.715 626.494,500.537C625.229,500.407 597.102,470.772 553.144,426.854C548.265,421.979 547.213,421.003 549.302,419.277C557.81,412.245 557.557,407.284 561.702,411.287C562.916,412.459 581.316,431.408 601.427,451.572Z" style="fill:rgb(12,12,12);"/>
        <path d="M519.371,454.5C519.427,467.89 519.538,543.963 519.432,544.486C519.036,546.438 515.731,545.866 505.497,545.811C502.758,545.796 502.537,545.224 502.541,542.5C502.726,435.483 502.206,433.489 503.65,432.837C504.702,432.361 504.753,433.009 515.512,432.696C518.068,432.621 519.12,431.943 519.289,434.519C519.374,435.815 519.371,452.902 519.371,454.5Z" style="fill:rgb(13,13,12);"/>
        <path d="M507.488,313.046C504.11,313.137 502.696,313.872 502.664,310.496C502.614,305.273 502.634,209.951 502.62,206.5C502.603,202.107 502.452,202.086 502.703,201.56C503.462,199.97 505.666,200.256 515.501,200.285C515.888,200.286 519.348,199.655 519.401,202.505C519.462,205.815 519.481,310.467 519.391,311.488C519.15,314.237 514.875,312.656 507.488,313.046Z" style="fill:rgb(12,11,11);"/>
        <path d="M551.668,320.66C575.101,297.105 575.049,297.128 577.088,295.087C593.601,278.551 624.605,246.892 625.805,245.904C627.71,244.336 632.919,251.042 636.693,254.27C639.772,256.904 637.51,257.695 630.178,265.173C605.11,290.743 605.029,290.604 602.894,292.866C601.564,294.276 561.391,335.067 561.238,335.208C558.421,337.792 558.57,334.598 549.89,327.057C547.419,324.91 548.4,324.147 551.668,320.66Z" style="fill:rgb(12,12,12);"/>
        <path d="M435.421,460.42C417.514,477.941 396.76,500.093 395.442,500.293C393.514,500.586 393.723,499.734 385.174,491.869C381.79,488.757 384.578,488.17 390.137,482.175C390.742,481.522 460.543,411.305 461.578,410.607C464.036,408.947 465.398,413.231 471.59,418.391C473.023,419.586 475.467,420.343 472.356,423.35C469.346,426.26 469.636,426.504 435.421,460.42Z" style="fill:rgb(13,13,13);"/>
    </g>
</svg>
