<?xml version="1.0" encoding="UTF-8" standalone="no"?>
<!DOCTYPE svg PUBLIC "-//W3C//DTD SVG 1.1//EN" "http://www.w3.org/Graphics/SVG/1.1/DTD/svg11.dtd">
<svg width="100%" height="100%" viewBox="0 0 546 512" version="1.1" xmlns="http://www.w3.org/2000/svg" xmlns:xlink="http://www.w3.org/1999/xlink" xml:space="preserve" xmlns:serif="http://www.serif.com/" style="fill-rule:evenodd;clip-rule:evenodd;stroke-linejoin:round;stroke-miterlimit:2;">
    <g id="Background" transform="matrix(1,0,0,1,-242,-260)">
        <path d="M692.501,275.037C725.625,274.712 748.454,274.63 763.684,312.425C769.264,326.271 765.674,377.911 767.213,417.479C767.514,425.216 743.241,388.828 693.487,390.203C609.393,392.528 588.129,467.946 543.558,482.651C482.769,502.706 455.061,452.721 431.216,429.79C414.376,413.594 382.335,383.248 322.45,396.336C293.453,402.673 257.97,429.308 257.471,429.283C255.235,429.171 256.763,427.675 256.814,370.501C256.858,321.41 255.691,314.249 270.907,292.804C276.991,284.229 288.804,273.061 338.492,274.997C392.48,277.102 410.162,303.359 464.999,381.157C484.631,409.009 490.455,421.674 507.442,423.87C532.851,427.156 537.779,405.542 580.876,349.795C617.483,302.444 633.062,275.281 692.501,275.037Z" style="fill:rgb(215,66,70);"/>
        <path d="M330.501,444.034C396.834,443.589 422.22,509.172 468.265,536.888C531.054,574.683 571.009,520.624 603.767,489.781C642.308,453.493 670.772,446.841 705.482,448.98C731.986,450.613 766.483,472.678 767.219,477.523C768.024,482.821 766.283,482.801 766.966,544.499C766.981,545.91 768.205,549.86 764.23,546.872C645.968,457.979 608.893,577.93 541.317,607.076C457.995,643.014 413.779,539.35 347.557,521.324C320.219,513.882 289.992,517.179 264.658,532.757C259.368,536.009 256.696,538.384 256.757,535.489C257.514,499.499 255.477,471.72 257.826,469.931C260.545,467.861 286.812,451.132 309.429,446.173C318.412,444.203 328.807,444.058 330.501,444.034Z" style="fill:rgb(215,66,70);"/>
        <path d="M309.498,748.966C306.479,748.857 289.08,748.229 274.709,734.284C254.613,714.784 256.85,702.091 256.771,643.499C256.708,597.084 256.652,596.775 257.823,595.88C293.541,568.593 339.543,573.626 358.583,581.297C385.933,592.317 382.701,610.747 382.725,620.502C382.895,690.469 383.193,690.455 382.76,696.521C378.837,751.54 322.921,749.049 309.498,748.966Z" style="fill:rgb(215,66,70);"/>
        <path d="M766.967,604.5C767.956,697.151 767.707,698.424 766.14,706.426C763.292,720.975 749.655,744.364 719.552,747.855C674.572,753.071 646.719,733.725 642.191,700.548C641.25,693.647 641.464,693.624 640.624,613.499C640.498,601.477 676.64,574.372 711.515,578.337C716.114,578.86 744.467,582.084 765.247,599.813C767.606,601.826 766.865,603.429 766.967,604.5Z" style="fill:rgb(215,66,70);"/>
    </g>
</svg>
